<?xml version="1.0" encoding="utf-8"?>
<!-- Generator: Adobe Illustrator 21.0.0, SVG Export Plug-In . SVG Version: 6.00 Build 0)  -->
<svg version="1.1" id="图层_1" xmlns="http://www.w3.org/2000/svg" xmlns:xlink="http://www.w3.org/1999/xlink" x="0px" y="0px"
	 width="44px" height="44px" viewBox="0 0 44 44" style="enable-background:new 0 0 44 44;" xml:space="preserve">
<style type="text/css">
	.st0{fill:#32A083;}
</style>
<path class="st0" d="M22,0.1C9.9,0.1,0.1,9.9,0.1,22S9.9,44,22,44c12.1,0,21.9-9.8,21.9-22C43.9,9.9,34.1,0.1,22,0.1z M28.5,31.9
	c0,0.4-0.3,0.7-0.7,0.7H11c-0.4,0-0.7-0.3-0.7-0.7V12.2c0-0.4,0.3-0.7,0.7-0.7h16.8c0.4,0,0.7,0.3,0.7,0.7v8.4
	c0,0.4-0.3,0.7-0.7,0.7c-0.4,0-0.7-0.3-0.7-0.7v-7.7H11.7v18.3H27v-1.1c0-0.4,0.3-0.7,0.7-0.7s0.7,0.3,0.7,0.7V31.9z M14.2,23.1
	v-1.2h10.3v1.2H14.2z M23,27.7v1.2h-8.8v-1.2H23z M14.2,19.6v-1.2h10.3v1.2H14.2z M14.2,16.2V15h10.3v1.2H14.2z M29.3,24.9l-0.6,2.8
	c0,0.2-0.2,0.3-0.3,0.3c-1,0.1-2.7,1.2-3.3,1.6c-0.1,0.1-0.3,0.1-0.4,0c-0.1-0.1-0.2-0.2-0.1-0.4c0.2-0.7,0.6-2.8,0.4-3.7
	c0-0.2,0-0.3,0.2-0.4l2.4-1.5c0.1-0.1,0.3-0.1,0.4,0l1.4,1C29.3,24.6,29.4,24.7,29.3,24.9z M35.5,15.7c-1.9,2.9-3.8,5.8-5.8,8.7
	c0,0-0.1,0.1-0.1,0.1c0-0.1-0.1-0.3-0.3-0.4l-1.4-1c-0.1-0.1-0.3-0.1-0.4-0.1c0,0,0-0.1,0.1-0.1c2.1-2.8,4.2-5.6,6.2-8.4
	c0.3-0.4,0.8-0.5,1.2-0.2c0.1,0.1,0.2,0.1,0.3,0.2C35.6,14.8,35.7,15.3,35.5,15.7z"/>
<path class="st0" d="M25.2,24.9c0.1,0.5,0.1,1.2-0.1,2c0,0,0,0.1,0,0.1l1-1.4c-0.1-0.1-0.1-0.3,0-0.4c0.1-0.2,0.4-0.2,0.5-0.1
	c0.2,0.1,0.2,0.4,0.1,0.5c-0.1,0.1-0.2,0.2-0.3,0.2l-1,1.4c0,0,0.1,0,0.1,0c0.8-0.4,1.4-0.7,1.9-0.8l0.4-2l-0.9-0.6L25.2,24.9z"/>
</svg>
