<?xml version="1.0" standalone="no"?><!DOCTYPE svg PUBLIC "-//W3C//DTD SVG 1.1//EN" "http://www.w3.org/Graphics/SVG/1.1/DTD/svg11.dtd"><svg t="1516429381043" class="icon" style="" viewBox="0 0 1024 1024" version="1.1" xmlns="http://www.w3.org/2000/svg" p-id="1755" xmlns:xlink="http://www.w3.org/1999/xlink" width="40" height="40"><defs><style type="text/css"></style></defs><path d="M717.514677 958.708971 306.4843 958.708971c-98.353029 0-178.332595-80.000032-178.332595-178.332595l0-536.7548c0-98.331539 79.979566-178.332595 178.332595-178.332595l411.030377 0c98.353029 0 178.332595 80.000032 178.332595 178.332595l0 536.7548C895.847272 878.708939 815.867706 958.708971 717.514677 958.708971zM306.4843 129.575124c-62.903655 0-114.047476 51.164287-114.047476 114.047476l0 536.7548c0 62.883189 51.14382 114.047476 114.047476 114.047476l411.030377 0c62.903655 0 114.047476-51.164287 114.047476-114.047476l0-536.7548c0-62.883189-51.14382-114.047476-114.047476-114.047476L306.4843 129.575124z" p-id="1756" fill="#ffffff"></path><path d="M717.975165 356.644723 306.065767 356.644723c-17.745153 0-32.142048-14.396895-32.142048-32.142048 0-17.745153 14.396895-32.142048 32.142048-32.142048l411.909397 0c17.745153 0 32.142048 14.396895 32.142048 32.142048C750.118236 342.247828 735.720318 356.644723 717.975165 356.644723z" p-id="1757" fill="#ffffff"></path><path d="M717.975165 544.142048 306.065767 544.142048c-17.745153 0-32.142048-14.396895-32.142048-32.142048 0-17.745153 14.396895-32.142048 32.142048-32.142048l411.909397 0c17.745153 0 32.142048 14.396895 32.142048 32.142048C750.118236 529.745153 735.720318 544.142048 717.975165 544.142048z" p-id="1758" fill="#ffffff"></path><path d="M717.975165 731.640396 306.065767 731.640396c-17.745153 0-32.142048-14.396895-32.142048-32.142048s14.396895-32.142048 32.142048-32.142048l411.909397 0c17.745153 0 32.142048 14.396895 32.142048 32.142048S735.720318 731.640396 717.975165 731.640396z" p-id="1759" fill="#ffffff"></path></svg>