<?xml version="1.0" encoding="utf-8"?>
<!-- Generator: Adobe Illustrator 21.0.0, SVG Export Plug-In . SVG Version: 6.00 Build 0)  -->
<svg version="1.1" id="图层_1" xmlns="http://www.w3.org/2000/svg" xmlns:xlink="http://www.w3.org/1999/xlink" x="0px" y="0px"
	 width="44px" height="44px" viewBox="0 0 44 44" style="enable-background:new 0 0 44 44;" xml:space="preserve">
<style type="text/css">
	.st0{fill:#2290CD;}
</style>
<path class="st0" d="M22,44C9.9,44,0,34.1,0,22S9.9,0,22,0s22,9.9,22,22S34.1,44,22,44z M11.4,32.8c0,0.7,0.5,1.2,1.2,1.2h18.7
	c0.7,0,1.2-0.6,1.2-1.2v-8.4c-0.3,0-0.5,0.1-0.8,0.1c-0.1,0-0.3,0-0.4,0v0c-0.1,0-0.2,0-0.3,0c0,0,0,0-0.1,0c-0.1,0-0.1,0-0.2,0
	c-0.2-0.1-0.4-0.1-0.6-0.2v0v6.1H13.9v-6.1v0c-0.2,0.1-0.4,0.1-0.6,0.2c-0.1,0-0.1,0-0.2,0c0,0-0.1,0-0.1,0c-0.1,0-0.2,0-0.3,0v0
	c-0.1,0-0.3,0-0.4,0c-0.3,0-0.5,0-0.8-0.1L11.4,32.8L11.4,32.8z M30.9,10H13.1c-0.7,0-1.2,0.6-1.2,1.2c0,0.7,0.5,1.2,1.2,1.2h17.9
	c0.7,0,1.2-0.6,1.2-1.2C32.2,10.6,31.6,10,30.9,10z M32.7,13.7H11.3L9,19.9c0,1.8,1.5,3.3,3.3,3.3s3.3-1.5,3.3-3.3
	c0,1.8,1.5,3.3,3.3,3.3c1.8,0,3.2-1.5,3.2-3.3c0,1.8,1.5,3.3,3.3,3.3s3.3-1.5,3.3-3.3c0,1.8,1.5,3.3,3.3,3.3s3.2-1.5,3.2-3.3
	L32.7,13.7z"/>
</svg>
