<?xml version="1.0" standalone="no"?><!DOCTYPE svg PUBLIC "-//W3C//DTD SVG 1.1//EN" "http://www.w3.org/Graphics/SVG/1.1/DTD/svg11.dtd"><svg t="1517534836227" class="icon" style="" viewBox="0 0 1024 1024" version="1.1" xmlns="http://www.w3.org/2000/svg" p-id="1945" xmlns:xlink="http://www.w3.org/1999/xlink" width="40" height="40"><defs><style type="text/css"></style></defs><path d="M511.999488 62.08501C265.001001 62.08501 64.768631 262.317381 64.768631 509.315868c0 246.998487 200.23237 447.231881 447.230857 447.231881 246.99951 0 447.229834-200.233394 447.229834-447.231881C959.229323 262.317381 758.998999 62.08501 511.999488 62.08501zM643.983475 710.621686c0 8.04114-6.514367 14.556531-14.556531 14.556531l-342.950839 0c-8.04114 0-14.556531-6.515391-14.556531-14.556531L271.919575 307.906695c0-8.04114 6.515391-14.555507 14.556531-14.555507l342.950839 0c8.04114 0 14.556531 6.514367 14.556531 14.555507l0 171.028235c0 8.04114-6.514367 14.556531-14.556531 14.556531-8.04114 0-14.555507-6.515391-14.555507-14.556531L614.871437 322.463226 301.031613 322.463226 301.031613 696.066179l313.839825 0 0-23.057135c0-8.04114 6.514367-14.556531 14.555507-14.556531 8.04114 0 14.556531 6.515391 14.556531 14.556531L643.983475 710.621686zM352.650247 530.677385l0-24.25952 210.602555 0 0 24.25952L352.650247 530.677385zM532.178063 624.714108l0 24.260543L352.650247 648.974651l0-24.260543L532.178063 624.714108zM352.650247 460.056977l0-24.260543 210.602555 0 0 24.260543L352.650247 460.056977zM352.650247 389.435547l0-24.260543 210.602555 0 0 24.260543L352.650247 389.435547zM661.676439 566.510498l-11.605316 56.158021c-0.675382 3.27151-3.465938 5.66707-6.80294 5.843078-19.61985 1.040702-56.043411 23.975041-68.421322 32.723286-2.534729 1.791809-5.91778 1.798972-8.460696 0.01842-2.541893-1.779529-3.691065-4.965082-2.873444-7.959276 3.989871-14.615882 13.091156-56.672744 7.350408-75.490322-0.974188-3.196809 0.334621-6.65456 3.178389-8.408507l48.783053-30.087249c2.49789-1.540076 5.678326-1.458211 8.082072 0.224104l27.791973 19.460214C661.103388 560.674583 662.268934 563.637054 661.676439 566.510498zM787.095917 380.949268c-39.183418 59.393715-78.379115 118.801756-117.563556 178.194448-0.595564 0.912789-1.2689 1.705851-2.02717 2.438539-0.800225-3.009544-2.623757-5.739724-5.291516-7.608282l-27.791973-19.460214c-2.665713-1.867534-5.861498-2.638083-8.964162-2.361791 0.428765-0.962931 0.950651-1.873674 1.602498-2.746554 42.409902-57.135278 84.835154-114.293069 127.245056-171.428348 5.891174-7.864108 16.698311-10.112312 24.083511-4.941546 1.705851 1.195222 3.411703 2.38942 5.118578 3.584642C790.892383 361.79093 792.471344 372.723933 787.095917 380.949268z" p-id="1946" fill="#A7A7A7"></path><path d="M586.260819 579.134003c2.018983 11.301394 1.372254 27.047006-1.910513 46.891983-0.11461 0.691755-0.231267 1.360997-0.338714 2.047636l22.551622-32.205493c-1.36816-2.852978-1.189082-6.316869 0.74599-9.081843 2.862187-4.088108 8.494465-5.081739 12.582573-2.219551 4.087085 2.862187 5.081739 8.496511 2.220574 12.58462-1.862417 2.660596-4.999874 3.939729-7.919367 3.839445l-22.670326 32.375362c0.615007-0.342808 1.226944-0.712221 1.847068-1.062192 17.525142-9.872858 32.078603-15.841803 43.389206-17.811668l9.549493-46.230927-19.872606-13.914918L586.260819 579.134003z" p-id="1947" fill="#A7A7A7"></path></svg>