<?xml version="1.0" encoding="utf-8"?>
<!-- Generator: Adobe Illustrator 21.0.0, SVG Export Plug-In . SVG Version: 6.00 Build 0)  -->
<svg version="1.1" id="图层_1" xmlns="http://www.w3.org/2000/svg" xmlns:xlink="http://www.w3.org/1999/xlink" x="0px" y="0px"
	 width="44px" height="44px" viewBox="0 0 44 44" style="enable-background:new 0 0 44 44;" xml:space="preserve">
<style type="text/css">
	.st0{fill:#2290CD;}
</style>
<path class="st0" d="M22,11.9c-3.9,0-7,3.1-7,7c0,1.9,0.7,3.6,1.9,4.8c1.3-1,3.4-2.1,3.4-2.3c0-0.3,0-0.5-0.6-1.2
	c-0.6-0.7-0.6-1.6-0.6-1.6V17c0-3,2.7-3,2.7-3s2.7,0,2.7,3v1.7c0,0,0,0.9-0.6,1.6c-0.6,0.7-0.6,0.9-0.6,1.2c0,0.2,2.3,1.5,3.6,2.5
	c1.3-1.3,2.1-3,2.1-5C29,15.1,25.9,11.9,22,11.9z"/>
<path class="st0" d="M29.3,26.3c-3.6,5.2-6.4,8.4-7.3,8.4c-0.8,0-3.7-3.5-7.3-8.4c-3.6-5-4-10.5,0-14.5c4-4,10.5-4,14.5,0
	C33.3,15.8,32.9,21.1,29.3,26.3z M22,0C9.9,0,0,9.8,0,22c0,12.2,9.9,22,22,22c12.2,0,22-9.8,22-22C44,9.8,34.2,0,22,0z"/>
</svg>
