<?xml version="1.0" standalone="no"?><!DOCTYPE svg PUBLIC "-//W3C//DTD SVG 1.1//EN" "http://www.w3.org/Graphics/SVG/1.1/DTD/svg11.dtd"><svg t="1517534937403" class="icon" style="" viewBox="0 0 1024 1024" version="1.1" xmlns="http://www.w3.org/2000/svg" p-id="5361" xmlns:xlink="http://www.w3.org/1999/xlink" width="40" height="40"><defs><style type="text/css"></style></defs><path d="M470.314599 594.526575l220.75273 0 0 13.796214-220.75273 0 0-13.796214Z" p-id="5362" fill="#0072b1"></path><path d="M470.314599 484.149699l220.75273 0 0 13.797237-220.75273 0 0-13.797237Z" p-id="5363" fill="#0072b1"></path><path d="M470.314599 428.960749l220.75273 0 0 13.798261-220.75273 0 0-13.798261Z" p-id="5364" fill="#0072b1"></path><path d="M470.314599 539.444049l220.75273 0 0 13.797237-220.75273 0 0-13.797237Z" p-id="5365" fill="#0072b1"></path><path d="M511.706311 64.020082c-247.272733 0-447.725114 200.453405-447.725114 447.725114s200.452381 447.725114 447.725114 447.725114 447.725114-200.453405 447.725114-447.725114S758.979044 64.020082 511.706311 64.020082zM594.488713 732.497926 290.953581 732.497926 290.953581 359.977631l124.174114 0 0 137.969305-82.782402 0 0 13.798261 82.782402 0 0 41.390689-82.782402 0 0 13.798261 82.782402 0 0 41.390689-82.782402 0 0 13.798261 82.782402 0 0 41.391712-82.782402 0 0 13.797237 82.782402 0 137.970328 0 41.391712 0L594.489736 732.497926zM732.459041 663.512762 428.92391 663.512762 428.92391 290.991444l206.956515 0 0 82.781378 0 13.798261 96.579639 0L732.460064 663.512762zM732.459041 373.773845l-82.782402 0 0-82.781378 9.324366 0 73.458035 69.340251L732.459041 373.773845z" p-id="5366" fill="#0072b1"></path></svg>