<?xml version="1.0" standalone="no"?><!DOCTYPE svg PUBLIC "-//W3C//DTD SVG 1.1//EN" "http://www.w3.org/Graphics/SVG/1.1/DTD/svg11.dtd"><svg t="1516773150681" class="icon" style="" viewBox="0 0 1024 1024" version="1.1" xmlns="http://www.w3.org/2000/svg" p-id="2032" xmlns:xlink="http://www.w3.org/1999/xlink" width="40" height="40"><defs><style type="text/css"></style></defs><path d="M640 853.333333c12.8 0 21.333333-8.533333 21.333333-21.333333l32-512c0-12.8-8.533333-21.333333-21.333333-21.333333-12.8 0-21.333333 8.533333-21.333333 21.333333L618.666667 832C618.666667 842.666667 627.2 853.333333 640 853.333333zM810.666667 170.666667l-36.266667 0c-12.8-10.666667-25.6-23.466667-38.4-42.666667-19.2-32-49.066667-64-108.8-64-51.2 0-85.333333 12.8-104.533333 34.133333C520.533333 102.4 514.133333 106.666667 505.6 106.666667c-10.666667 0-21.333333-4.266667-27.733333-14.933333-8.533333-32-42.666667-49.066667-83.2-49.066667-40.533333 0-72.533333 23.466667-83.2 55.466667-42.666667 14.933333-74.666667 40.533333-85.333333 72.533333L213.333333 170.666667C200.533333 170.666667 192 179.2 192 192c0 0 0 0 0 0l42.666667 704c6.4 46.933333 38.4 85.333333 85.333333 85.333333l384 0c46.933333 0 76.8-38.4 85.333333-85.333333l42.666667-704c0 0 0 0 0 0C832 179.2 823.466667 170.666667 810.666667 170.666667zM326.4 138.666667c12.8-4.266667 23.466667-14.933333 27.733333-27.733333C356.266667 98.133333 371.2 85.333333 394.666667 85.333333s38.4 4.266667 40.533333 17.066667c2.133333 4.266667 4.266667 8.533333 6.4 12.8 14.933333 21.333333 38.4 32 61.866667 32 19.2 0 38.4-8.533333 51.2-21.333333 12.8-12.8 34.133333-21.333333 72.533333-21.333333 38.4 0 59.733333 21.333333 64 32 6.4 12.8 14.933333 23.466667 23.466667 32L275.2 168.533333C285.866667 157.866667 302.933333 147.2 326.4 138.666667zM746.666667 896c-2.133333 23.466667-19.2 42.666667-42.666667 42.666667L320 938.666667c-23.466667 0-38.4-19.2-42.666667-42.666667l-40.533333-682.666667 552.533333 0L746.666667 896zM512 853.333333c12.8 0 21.333333-8.533333 21.333333-21.333333L533.333333 320c0-12.8-8.533333-21.333333-21.333333-21.333333s-21.333333 8.533333-21.333333 21.333333l0 512C490.666667 844.8 499.2 853.333333 512 853.333333zM384 853.333333c12.8 0 21.333333-10.666667 21.333333-21.333333l-32-512c0-12.8-10.666667-21.333333-21.333333-21.333333-12.8 0-21.333333 10.666667-21.333333 21.333333L362.666667 832C362.666667 844.8 373.333333 853.333333 384 853.333333z" p-id="2033" fill="#a7a7a7"></path></svg>