<?xml version="1.0" standalone="no"?><!DOCTYPE svg PUBLIC "-//W3C//DTD SVG 1.1//EN" "http://www.w3.org/Graphics/SVG/1.1/DTD/svg11.dtd"><svg t="1516778676131" class="icon" style="" viewBox="0 0 1024 1024" version="1.1" xmlns="http://www.w3.org/2000/svg" p-id="2803" xmlns:xlink="http://www.w3.org/1999/xlink" width="40" height="40"><defs><style type="text/css"></style></defs><path d="M512.18432 277.77536c-89.92256 0-162.816 72.98048-162.816 163.01568 0 43.55072 17.16224 83.03104 44.95872 112.28672 31.02208-22.95808 78.91456-48.82944 78.91456-53.62688 0-7.10656-0.58368-11.85792-13.97248-27.83744-13.37856-15.98464-13.58848-37.4272-13.58848-37.4272v-38.56896c0-69.97504 61.72672-69.41696 61.72672-69.41696s61.7216-0.53248 61.7216 69.41696v38.56896s-0.21504 21.44256-13.58848 37.4272c-13.38368 15.97952-13.9776 20.7104-13.9776 27.83744 0 5.10976 53.97504 33.9456 84.39296 57.89184 30.2592-29.59872 49.0752-70.84032 49.0752-116.55168-0.00512-90.0352-72.9088-163.01568-162.84672-163.01568z" fill="#a7a7a7" p-id="2804"></path><path d="M670.11072 601.84064c-78.72512 112.9472-140.37504 184.1152-158.26944 184.1152-17.87904 0-80.82432-75.90912-158.27456-184.1152-77.44512-108.17024-87.3984-228.864 0-316.17536 87.424-87.3216 229.1456-87.3216 316.544 0 87.43424 87.31136 78.7712 203.2384 0 316.17536zM512 28.40576c-264.47872 0-478.89408 214.656-478.89408 479.45216 0 264.81152 214.41536 479.46752 478.89408 479.46752 264.4992 0 478.89408-214.656 478.89408-479.46752C990.88896 243.06176 776.49408 28.40576 512 28.40576z" fill="#a7a7a7" p-id="2805"></path></svg>