<?xml version="1.0" standalone="no"?><!DOCTYPE svg PUBLIC "-//W3C//DTD SVG 1.1//EN" "http://www.w3.org/Graphics/SVG/1.1/DTD/svg11.dtd"><svg t="1516262545175" class="icon" style="" viewBox="0 0 1024 1024" version="1.1" xmlns="http://www.w3.org/2000/svg" p-id="2144" xmlns:xlink="http://www.w3.org/1999/xlink" width="44" height="44"><defs><style type="text/css"></style></defs><path d="M512 2.261448c-282.136072 0-510.869276 228.733204-510.869276 510.869276 0 282.149695 228.733204 510.869276 510.869276 510.869276 282.149695 0 510.869276-228.719581 510.869276-510.869276C1022.869276 230.994652 794.149695 2.261448 512 2.261448zM297.434904 406.597451c0-60.909241 49.38403-110.293271 110.306894-110.293271l45.446931 0 0 43.4307-22.069553 0c-48.593886 0-87.978501 39.384615-87.978501 87.964878l0 26.129261L297.434904 453.829018 297.434904 406.597451zM453.188729 725.434372l-45.446931 0c-60.922864 0-110.306894-49.38403-110.306894-110.306894l0-42.109252 45.692148 0 0 21.006945c0 48.593886 39.384615 87.978501 87.978501 87.978501l22.069553 0L453.175106 725.434372zM726.565096 615.127478c0 60.922864-49.38403 110.306894-110.306894 110.306894l-40.896788 0 0-43.4307 22.069553 0c48.593886 0 87.978501-39.384615 87.978501-87.978501l0-21.006945 41.155629 0L726.565096 615.127478zM726.565096 533.006945l-429.130192 0 0-40.869542 429.130192 0L726.565096 533.006945zM726.565096 453.829018l-41.155629 0 0-26.129261c0-48.580262-39.384615-87.964878-87.978501-87.964878l-22.069553 0L575.361413 296.30418l40.896788 0c60.922864 0 110.306894 49.38403 110.306894 110.293271L726.565096 453.829018z" p-id="2145" fill="#32a083"></path></svg>