<?xml version="1.0" standalone="no"?><!DOCTYPE svg PUBLIC "-//W3C//DTD SVG 1.1//EN" "http://www.w3.org/Graphics/SVG/1.1/DTD/svg11.dtd"><svg t="1519807745095" class="icon" style="" viewBox="0 0 1024 1024" version="1.1" xmlns="http://www.w3.org/2000/svg" p-id="3650" xmlns:xlink="http://www.w3.org/1999/xlink" width="44" height="44"><defs><style type="text/css"></style></defs><path d="M806.4 225.792l138.24 138.24c9.216 9.216 14.336 22.016 14.336 35.328v29.184c0 27.648-22.016 49.664-49.664 49.664H140.288c-27.648 0-49.664-22.016-49.664-49.664 0-27.648 22.016-49.664 49.664-49.664h619.008c9.728 0 17.408-7.68 17.408-17.408v-122.88c-0.512-15.872 18.432-24.064 29.696-12.8zM273.408 821.248v-122.88c0-9.728 7.68-17.408 17.408-17.408h619.008c27.648 0 49.664-22.016 49.664-49.664 0-27.648-22.016-49.664-49.664-49.664H140.288c-27.648 0-49.664 22.016-49.664 49.664v29.184c0 13.312 5.12 25.6 14.336 35.328l138.24 138.24c11.264 10.752 30.208 3.072 30.208-12.8z" p-id="3651" fill="#2290cd"></path></svg>