<?xml version="1.0" standalone="no"?><!DOCTYPE svg PUBLIC "-//W3C//DTD SVG 1.1//EN" "http://www.w3.org/Graphics/SVG/1.1/DTD/svg11.dtd"><svg t="1516778718674" class="icon" style="" viewBox="0 0 1025 1024" version="1.1" xmlns="http://www.w3.org/2000/svg" p-id="3393" xmlns:xlink="http://www.w3.org/1999/xlink" width="40.0390625" height="40"><defs><style type="text/css"></style></defs><path d="M432.198028 750.689666c-21.700026 0-40.8013-13.105016-48.696309-33.462541L298.755365 477.613083c-5.581257-13.706267-7.285009-20.898776-7.295009-20.898776-1.186251-5.825007-1.792502-11.777514-1.792502-17.700022 0-48.017559 39.062548-87.085106 87.071356-87.085106 48.017559 0 87.080106 39.062548 87.080106 87.085106 0 11.171264-2.133753 22.333777-6.006257 31.943789l-3.066254 5.805007c-0.747501 1.816252-1.035001 2.690003-1.543752 3.916255l-0.610001 1.157501c-12.353765 27.152533-48.066309 120.010146 11.338764 175.233964 13.017516 10.000012 20.477525 25.083781 20.477525 41.387551C484.419341 727.267138 460.991813 750.689666 432.198028 750.689666L432.198028 750.689666z" p-id="3394" fill="#0072b1"></path><path d="M591.801972 750.689666c-28.788785 0-52.212564-23.431279-52.212564-52.225064 0-16.30002 7.466259-31.382538 20.747525-41.612551 59.131322-55.003817 23.427529-147.85643 10.981263-175.185214l-0.756251-1.303752c-0.26875-0.878751-0.556251-1.767502-1.470002-3.916255l-2.735003-5.131256c-4.037505-9.961262-6.167508-21.128776-6.167508-32.295039 0-48.012559 39.062548-87.075106 87.075106-87.075106s87.075106 39.062548 87.075106 87.075106c0 5.902507-0.605001 11.855014-1.772502 17.607521-0.015 0.0725-1.718752 7.255009-7.382509 21.152526l-83.096351 235.620288-1.606252 3.901255C632.613272 737.5834 613.511999 750.689666 591.801972 750.689666L591.801972 750.689666z" p-id="3395" fill="#0072b1"></path><path d="M512.011875 0C229.23403 0 0 229.23403 0 512.011875c0 282.764095 229.23403 511.988125 512.011875 511.988125 282.774095 0 511.998125-229.22403 511.998125-511.988125C1024.01 229.23403 794.78597 0 512.011875 0zM472.603077 274.741585c11.455014 0 20.776275 9.316261 20.776275 20.761275 0 11.446264-9.321261 20.762525-20.776275 20.762525-11.445014 0-20.761275-9.316261-20.761275-20.762525C451.841802 284.057847 461.158063 274.741585 472.603077 274.741585zM247.134052 337.890412c-2.182503 0-4.321255-0.590001-6.191258-1.703752-5.722507-3.393754-7.617509-10.825013-4.223755-16.55752 0.395-0.693751 42.417552-70.546336 135.278915-70.546336 19.027523 0 39.076298 2.997504 59.575073 8.920011 6.416258 1.866252 10.126262 8.59376 8.27626 15.005018-1.801252 6.245008-8.691261 10.088762-14.990018 8.26751-18.555023-5.362507-36.567545-8.08126-53.540065-8.08126-77.525095 0-112.338887 56.391319-113.770139 58.798822C255.366562 335.62541 251.372807 337.890412 247.134052 337.890412zM432.208028 774.923446c-27.432533 0-52.852565-14.761268-66.338831-38.511297-2.211253-4.013755-5.092506-10.268763-5.092506-10.268763L276.132837 486.225594c-5.883757-14.432518-7.97376-22.836278-8.32501-24.37003-1.572502-7.602509-2.353753-15.238769-2.353753-22.826278 0-61.367575 49.932561-111.295136 111.298886-111.295136 61.367575 0 111.303886 49.927561 111.303886 111.295136 0 14.531268-2.817503 28.750035-8.36376 42.255052l-2.900004 5.517507c-0.08375 0.27375-0.17625 0.576251-0.26375 0.830001-0.430001 1.357502-0.747501 2.266253-2.310003 5.083756-10.443763 23.051278-41.3038 102.470125 5.337507 145.903928 18.383772 14.046267 29.086286 35.946294 29.091286 59.852573C508.648121 740.625904 474.355579 774.923446 432.208028 774.923446zM536.739405 280.815343c3.842505-3.842505 9.247511-6.083757 14.682518-6.083757s10.835013 2.241253 14.682518 6.083757c3.842505 3.843755 6.078757 9.243761 6.078757 14.678768 0 5.438757-2.236253 10.838763-6.078757 14.682518-3.847505 3.842505-9.247511 6.083757-14.682518 6.083757s-10.840013-2.241253-14.682518-6.083757c-3.842505-3.843755-6.078757-9.243761-6.078757-14.682518C530.659398 290.059104 532.895651 284.659097 536.739405 280.815343zM756.250923 461.694314c-0.39125 1.680002-2.475003 10.083762-8.42751 24.67878l-84.453853 239.447792-0.0825-0.02875c-1.113751 3.198754-5.058756 10.480013-5.102506 10.561263-13.520017 23.808779-38.935048 38.561297-66.372581 38.561297-42.148801 0-76.435093-34.297542-76.435093-76.450093 0-23.902529 10.693763-45.802556 29.355036-60.083823 46.347557-43.178803 15.493769-122.61265 4.926256-145.927678-1.460002-2.641253-1.762502-3.511254-2.162503-4.810006-0.0875-0.25875-0.19-0.566251-0.27375-0.853751l-2.748753-5.186256c-5.703757-13.808767-8.51126-28.027534-8.51126-42.582552 0-61.372575 49.931311-111.298886 111.303886-111.298886 61.362575 0 111.288886 49.926311 111.293886 111.293886C758.560926 446.583045 757.779675 454.214304 756.250923 461.694314zM783.057206 336.18666c-1.850002 1.113751-3.988755 1.703752-6.176258 1.703752-4.238755 0-8.22751-2.265003-10.410013-5.912507-1.445002-2.392503-36.362544-58.783822-113.778889-58.783822-16.972521 0-34.975043 2.718753-53.540065 8.08126-6.293758 1.821252-13.188766-2.027502-14.990018-8.27751-0.898751-3.090004-0.537501-6.357508 1.020001-9.178761 1.562502-2.847503 4.136255-4.907506 7.261259-5.816257 20.497525-5.922507 40.542549-8.920011 59.570073-8.920011 92.348863 0 134.858915 69.838835 135.278915 70.536336C790.684715 325.361647 788.779713 332.787906 783.057206 336.18666z" p-id="3396" fill="#0072b1"></path><path d="M512.011875 999.03622" p-id="3397" fill="#0072b1"></path></svg>