<?xml version="1.0" standalone="no"?><!DOCTYPE svg PUBLIC "-//W3C//DTD SVG 1.1//EN" "http://www.w3.org/Graphics/SVG/1.1/DTD/svg11.dtd"><svg t="1516262679490" class="icon" style="" viewBox="0 0 1024 1024" version="1.1" xmlns="http://www.w3.org/2000/svg" p-id="2895" xmlns:xlink="http://www.w3.org/1999/xlink" width="44" height="44"><defs><style type="text/css"></style></defs><path d="M432.545434 498.54666 403.306806 562.958386 373.705886 498.54666 314.677537 498.54666 361.06643 580.608719 321.010021 580.608719 321.010021 608.847212 377.487006 608.847212 377.487006 624.992241 321.010021 624.992241 321.010021 653.251145 377.487006 653.251145 377.487006 688.209929 429.973659 688.209929 429.973659 653.251145 485.11373 653.251145 485.11373 624.992241 429.973659 624.992241 429.973659 608.847212 485.11373 608.847212 485.11373 580.608719 446.628961 580.608719 491.747275 498.54666Z" p-id="2896" fill="#f28928"></path><path d="M512.005103 0C229.242574 0 0.012757 229.224714 0.012757 511.992346c0 282.767632 229.229817 512.007654 511.992346 512.007654 282.767632 0 511.98214-229.245125 511.98214-512.007654C1023.987243 229.229817 794.767632 0 512.005103 0zM857.658745 492.234586c0.040822 13.440584 0.066335 26.881167 0 40.316648-0.086746 13.935548-8.791999 22.513233-22.773472 22.513233-47.945225 0-95.890451-0.086746-143.835676 0.107157-5.204782 0.020411-6.613135-1.40325-7.067277-6.613135-2.117632-24.870693-8.08272-48.919846-16.981876-72.234207-0.862361-2.224789-2.418693-4.342421-1.990064-7.388749 24.610454 0 49.220907-0.020411 73.851772 0 31.82571 0 63.631009 0 95.461822 0.020411C849.213732 468.98656 857.617923 477.370341 857.658745 492.234586zM814.576419 663.859715c-0.239828 11.236205-9.072649 20.222108-20.201697 20.268033-42.99558 0.193904-85.975852 0.086746-130.139956 0.086746 6.199814-16.527734 11.690348-32.300264 15.017326-48.787175 2.183967-10.736138 4.255675-21.49779 4.88331-32.453345 0.214315-3.628039 1.342017-5.036392 5.16396-5.010878 34.958785 0.153082 69.897158 0.020411 104.835532 0.193904 11.129048 0.066335 20.135362 8.878745 20.395601 20.028205C814.87748 633.396433 814.87748 648.648485 814.576419 663.859715zM647.252889 426.031802c-3.520882 0.020411-6.138581-0.408218-8.383781-3.847456-21.089572-31.999203-47.858479-58.380303-79.81686-79.556621-0.714382-0.494965-1.423661-1.056265-3.694375-2.8065 24.651275 0 47.404336 0 70.177808 0 40.964695 0 81.954903 0 122.9247 0.020411 14.476437 0.020411 23.074533 8.511349 23.120457 22.793883 0.040822 13.654898 0.066335 27.309796 0 40.964695-0.040822 13.501816-8.837924 22.298918-22.212172 22.33974C715.313065 425.990981 681.282977 425.945056 647.252889 426.031802zM341.165794 233.255869c0.086746-14.001884 8.664431-22.533644 22.753061-22.533644 142.519173-0.020411 285.038345-0.020411 427.577929 0 14.476437 0 23.100046 8.577685 23.140868 22.880629 0.040822 13.440584 0.040822 26.881167-0.020411 40.342162-0.086746 14.456026-8.577685 22.860218-23.100046 22.860218-71.259586 0.020411-142.539584 0-213.79917 0-70.805444 0-141.631298 0.020411-212.441844 0-16.160337-0.020411-24.176722-8.256213-24.1359-24.544118C341.165794 259.269572 341.104561 246.262721 341.165794 233.255869zM402.791431 813.293083c-130.680845-0.193904-236.659388-106.47861-236.511409-237.179866 0.173493-131.609542 106.779671-236.572642 240.032291-236.291992 128.063146 0.28065 233.592649 107.60121 233.439567 237.460516C639.624312 707.375773 533.099777 813.5125 402.791431 813.293083zM857.638334 791.642211c-0.127568 12.705791-8.92467 21.604947-21.604947 21.604947-92.282823 0.066335-184.565645 0.040822-276.848468 0.020411-0.627635 0-1.275682-0.127568-3.520882-0.387807 14.476437-9.832955 27.355721-19.400569 39.239973-30.294892 16.594069-15.231641 31.136842-32.193106 43.475236-50.991554 2.2452-3.413725 4.643482-4.515914 8.684842-4.515914 61.819541 0.153082 123.633979 0.086746 185.45352 0.107157 17.589101 0 25.171754 7.68981 25.171754 25.498328C857.684259 765.674432 857.791416 778.660873 857.638334 791.642211z" p-id="2897" fill="#f28928"></path><path d="M403.699716 382.903551c-106.652103-0.28065-193.98528 86.169755-194.37819 192.388126-0.387807 107.172581 85.996263 194.679251 192.434051 194.980312 107.927784 0.28065 194.699662-85.950338 194.980312-193.70463C596.996128 470.241831 510.219148 383.163791 403.699716 382.903551zM402.337288 748.753788c-95.523054-0.408218-171.859854-78.066624-171.492458-174.431629 0.346985-93.211519 78.842239-170.436193 172.640572-169.915715 95.395486 0.540889 172.120093 77.719639 171.778211 172.747729C574.870703 672.202674 497.319454 749.18752 402.337288 748.753788z" p-id="2898" fill="#f28928"></path></svg>