<?xml version="1.0" encoding="utf-8"?>
<!-- Generator: Adobe Illustrator 21.0.0, SVG Export Plug-In . SVG Version: 6.00 Build 0)  -->
<svg version="1.1" id="图层_1" xmlns="http://www.w3.org/2000/svg" xmlns:xlink="http://www.w3.org/1999/xlink" x="0px" y="0px"
	 width="44px" height="44px" viewBox="0 0 44 44" style="enable-background:new 0 0 44 44;" xml:space="preserve">
<style type="text/css">
	.st0{fill:#2290CD;}
</style>
<path class="st0" d="M37.7,9.6c0,0.8,0.6,1.4,1.4,1.4c0.8,0,1.4-0.6,1.4-1.4V2.3c0-0.8-0.6-1.4-1.4-1.4c0,0,0,0,0,0h-7.3
	c-0.8,0-1.4,0.6-1.4,1.4s0.6,1.4,1.4,1.4h4L23.1,16.4l-3.9-3.9c-0.3-0.3-0.6-0.4-1-0.4h0c-0.4,0-0.8,0.2-1,0.4L3.7,26
	c-0.6,0.6-0.6,1.5,0,2c0.3,0.3,0.6,0.4,1,0.4c0.4,0,0.8-0.2,1-0.4l12.4-12.5l3.9,3.9c0.5,0.5,1.5,0.5,2,0L37.7,5.9L37.7,9.6
	C37.7,9.6,37.7,9.6,37.7,9.6z M34.6,16.2h6.1V44h-6.1V16.2z M24.5,21.9h6.1V44h-6.1V21.9z M14.4,27.5h6.1V44h-6.1V27.5z M4.2,33.6
	h6.1V44H4.2V33.6z"/>
</svg>
