<?xml version="1.0" encoding="utf-8"?>
<!-- Generator: Adobe Illustrator 21.0.0, SVG Export Plug-In . SVG Version: 6.00 Build 0)  -->
<svg version="1.1" id="图层_1" xmlns="http://www.w3.org/2000/svg" xmlns:xlink="http://www.w3.org/1999/xlink" x="0px" y="0px"
	 width="80.3px" height="80px" viewBox="0 0 80.3 80" style="enable-background:new 0 0 80.3 80;" xml:space="preserve">
<style type="text/css">
	.st0{fill:#0072B1;}
</style>
<path class="st0" d="M40.2,4.5c5,0,9.6,0.9,14,2.8s8.2,4.5,11.4,7.7c3.2,3.2,5.8,7.1,7.7,11.4c1.9,4.4,2.8,9,2.8,14s-0.9,9.6-2.8,14
	c-1.9,4.4-4.5,8.2-7.7,11.4c-3.2,3.2-7.1,5.8-11.4,7.7s-9,2.8-14,2.8c-4.4,0-8.6-0.7-12.5-2.2c-3.9-1.5-7.5-3.5-10.6-6.1l8.7-18.6
	c1.1,1.7,2.1,3.3,3,4.8c0.8,1.3,1.5,2.5,2.3,3.6c0.8,1.2,1.3,1.9,1.6,2.3c0.6,0.7,1.1,1.4,1.6,2s1.2,1,2,1.1c1.1,0.2,1.8,0,2.3-0.6
	c0.5-0.5,1-1.2,1.5-2.1c0.2-0.2,0.4-0.7,0.9-1.6c0.4-0.9,1-1.9,1.6-3.2c0.6-1.3,1.3-2.7,2.1-4.3c0.8-1.6,1.5-3.2,2.3-4.8
	c1.8-3.8,3.8-8,6-12.7l8.1,4.4l-3.3-23.7L37,27.5l9.1,3.1l-9.7,19.9c-1.5-2.4-2.8-4.5-3.8-6.3c-0.5-0.8-0.9-1.5-1.3-2.2
	c-0.4-0.7-0.8-1.3-1.1-1.8l-0.7-1.2c0.2,0.4,0.2,0.5,0,0.2s-0.5-0.7-0.9-1.2c-0.4-0.5-0.9-1-1.4-1.5c-0.5-0.5-1-0.8-1.5-0.8
	c-1.2,0-2,0.3-2.5,0.9c-0.5,0.6-0.9,1.3-1.2,2c-0.1,0.2-0.4,0.8-0.8,1.6s-0.9,2-1.6,3.3c-0.7,1.3-1.4,2.8-2.1,4.4l-2.5,4.8
	c-0.8,1.6-1.5,3.2-2.2,4.7c-0.7,1.5-1.3,2.7-1.8,3.8c-2.1-3-3.8-6.2-4.9-9.7s-1.7-7.2-1.7-11.1c0-5,0.9-9.6,2.8-14s4.4-8.2,7.7-11.4
	s7.1-5.8,11.4-7.7S35.3,4.5,40.2,4.5z"/>
</svg>
