<?xml version="1.0" encoding="utf-8"?>
<!-- Generator: Adobe Illustrator 21.0.0, SVG Export Plug-In . SVG Version: 6.00 Build 0)  -->
<svg version="1.1" id="图层_1" xmlns="http://www.w3.org/2000/svg" xmlns:xlink="http://www.w3.org/1999/xlink" x="0px" y="0px"
	 width="80px" height="80px" viewBox="0 0 80 80" style="enable-background:new 0 0 80 80;" xml:space="preserve">
<style type="text/css">
	.st0{fill:#0072B1;}
</style>
<path class="st0" d="M40,4.7C20.2,4.7,4.1,20.7,4.1,40.6S20.2,76.5,40,76.5c19.8,0,35.9-16.1,35.9-35.9C75.9,20.7,59.8,4.7,40,4.7z
	 M50.6,56.8c0,0.6-0.5,1.2-1.2,1.2H21.9c-0.6,0-1.2-0.5-1.2-1.2V24.4c0-0.6,0.5-1.2,1.2-1.2h27.6c0.6,0,1.2,0.5,1.2,1.2v13.7
	c0,0.6-0.5,1.2-1.2,1.2c-0.6,0-1.2-0.5-1.2-1.2V25.6H23v30h25.2v-1.9c0-0.6,0.5-1.2,1.2-1.2s1.2,0.5,1.2,1.2V56.8z M27.2,42.3v-1.9
	h16.9v1.9H27.2z M41.6,49.9v1.9H27.2v-1.9H41.6z M27.2,36.6v-1.9h16.9v1.9L27.2,36.6z M27.2,31V29h16.9V31H27.2z M52,45.2l-0.9,4.5
	c-0.1,0.3-0.3,0.5-0.5,0.5c-1.6,0.1-4.5,1.9-5.5,2.6c-0.2,0.1-0.5,0.1-0.7,0c-0.2-0.1-0.3-0.4-0.2-0.6c0.3-1.2,1.1-4.6,0.6-6.1
	c-0.1-0.3,0-0.5,0.3-0.7l3.9-2.4c0.2-0.1,0.5-0.1,0.6,0l2.2,1.6C52,44.7,52.1,45,52,45.2z M62.1,30.3c-3.1,4.8-6.3,9.5-9.4,14.3
	c0,0.1-0.1,0.1-0.2,0.2c-0.1-0.2-0.2-0.5-0.4-0.6l-2.2-1.6c-0.2-0.2-0.5-0.2-0.7-0.2c0-0.1,0.1-0.2,0.1-0.2
	c3.4-4.6,6.8-9.2,10.2-13.8c0.5-0.6,1.3-0.8,1.9-0.4c0.1,0.1,0.3,0.2,0.4,0.3C62.4,28.7,62.5,29.6,62.1,30.3z"/>
<path class="st0" d="M45.8,45.2c0.2,0.9,0.1,2.1-0.1,3.7c0,0.1,0,0.1,0,0.2l1.8-2.5c-0.1-0.2-0.1-0.5,0.1-0.7c0.2-0.3,0.7-0.4,1-0.2
	c0.3,0.2,0.4,0.7,0.2,1C48.5,46.9,48.2,47,48,47l-1.8,2.5c0,0,0.1-0.1,0.1-0.1c1.4-0.8,2.5-1.2,3.4-1.4l0.7-3.6l-1.6-1.1L45.8,45.2z
	"/>
</svg>
